<svg width="120" height="120" viewBox="0 0 120 120" fill="none" xmlns="http://www.w3.org/2000/svg">
<path d="M99.5668 48.1679C98.7271 21.8654 77.4142 0.639574 51.023 0C50.3432 0 49.7834 0.519654 49.7834 1.1992L49.7434 18.8674C49.7434 19.7468 49.0636 20.4264 48.1839 20.4664C21.8727 21.2658 0.639787 42.6116 0 68.994C0 69.6735 0.519827 70.2332 1.1996 70.2332L18.8337 70.2731C19.7134 70.2731 20.3932 70.9527 20.4332 71.8321C21.2729 98.1346 42.6258 119.36 68.977 120C69.6568 120 70.2166 119.48 70.2166 118.801L70.2566 101.133C70.2566 100.253 70.9364 99.5736 71.8161 99.5336C98.1273 98.6942 119.36 77.3484 120 51.006C120 50.3264 119.48 49.7668 118.8 49.7668L101.166 49.7268C100.287 49.7268 99.6068 49.0473 99.5668 48.1679ZM68.4972 99.4137C53.5422 98.5343 41.5462 86.3824 40.9863 71.3524C40.9464 70.7129 40.4265 70.1932 39.7867 70.1932L22.1926 70.1532C21.2729 70.1532 20.5531 69.3937 20.5931 68.4743C21.4728 53.5243 33.6288 41.5323 48.6638 40.9727C49.3036 40.9327 49.8234 40.4131 49.8234 39.7735L49.8634 22.1452C49.8634 21.2258 50.6231 20.5063 51.5428 20.5463C66.4978 21.4257 78.4938 33.5776 79.0536 48.6076C79.0936 49.2472 79.6135 49.7668 80.2532 49.7668L97.8474 49.8068C98.7671 49.8068 99.4868 50.5663 99.4468 51.4857C98.5671 66.8354 85.8114 79.0273 70.2566 79.0273L70.2166 97.8148C70.1766 98.7342 69.4169 99.4537 68.4972 99.4137Z" fill="#E60000"/>
</svg>
